<?xml version="1.0" encoding="utf-8"?>
<!-- Generator: Adobe Illustrator 20.1.0, SVG Export Plug-In . SVG Version: 6.00 Build 0)  -->
<svg version="1.1" id="图层_1" xmlns="http://www.w3.org/2000/svg" xmlns:xlink="http://www.w3.org/1999/xlink" x="0px" y="0px"
	 viewBox="0 0 385 788" enable-background="new 0 0 385 788" xml:space="preserve">
<g>
	<g>
		
			<rect x="128.1" y="487.6" transform="matrix(0.7071 0.7071 -0.7071 0.7071 398.7648 45.4507)" fill="none" stroke="#ED1C24" stroke-width="20" stroke-miterlimit="10" width="32.9" height="32.9"/>
		
			<rect x="151.3" y="510.9" transform="matrix(0.7071 0.7071 -0.7071 0.7071 422.0056 35.8241)" fill="none" stroke="#ED1C24" stroke-width="20" stroke-miterlimit="10" width="32.9" height="32.9"/>
		
			<rect x="174.6" y="534.1" transform="matrix(0.7071 0.7071 -0.7071 0.7071 445.2463 26.1975)" fill="none" stroke="#ED1C24" stroke-width="20" stroke-miterlimit="10" width="32.9" height="32.9"/>
		
			<rect x="197.8" y="557.4" transform="matrix(0.7071 0.7071 -0.7071 0.7071 468.487 16.5708)" fill="none" stroke="#ED1C24" stroke-width="20" stroke-miterlimit="10" width="32.9" height="32.9"/>
		
			<rect x="221" y="580.6" transform="matrix(0.7071 0.7071 -0.7071 0.7071 491.7278 6.9442)" fill="none" stroke="#ED1C24" stroke-width="20" stroke-miterlimit="10" width="32.9" height="32.9"/>
		
			<rect x="244.3" y="603.8" transform="matrix(0.7071 0.7071 -0.7071 0.7071 514.9685 -2.6824)" fill="none" stroke="#ED1C24" stroke-width="20" stroke-miterlimit="10" width="32.9" height="32.9"/>
		
			<rect x="267.5" y="627.1" transform="matrix(0.7071 0.7071 -0.7071 0.7071 538.2092 -12.3091)" fill="none" stroke="#ED1C24" stroke-width="20" stroke-miterlimit="10" width="32.9" height="32.9"/>
		
			<rect x="104.8" y="510.9" transform="matrix(0.7071 0.7071 -0.7071 0.7071 408.3914 68.6915)" fill="none" stroke="#ED1C24" stroke-width="20" stroke-miterlimit="10" width="32.9" height="32.9"/>
		
			<rect x="128.1" y="534.1" transform="matrix(0.7071 0.7071 -0.7071 0.7071 431.6322 59.0648)" fill="none" stroke="#ED1C24" stroke-width="20" stroke-miterlimit="10" width="32.9" height="32.9"/>
		
			<rect x="151.3" y="557.4" transform="matrix(0.7071 0.7071 -0.7071 0.7071 454.8729 49.4382)" fill="none" stroke="#ED1C24" stroke-width="20" stroke-miterlimit="10" width="32.9" height="32.9"/>
		
			<rect x="174.6" y="580.6" transform="matrix(0.7071 0.7071 -0.7071 0.7071 478.1136 39.8116)" fill="none" stroke="#ED1C24" stroke-width="20" stroke-miterlimit="10" width="32.9" height="32.9"/>
		
			<rect x="197.8" y="603.8" transform="matrix(0.7071 0.7071 -0.7071 0.7071 501.3544 30.1849)" fill="none" stroke="#ED1C24" stroke-width="20" stroke-miterlimit="10" width="32.9" height="32.9"/>
		
			<rect x="221" y="627.1" transform="matrix(0.7071 0.7071 -0.7071 0.7071 524.5952 20.5583)" fill="none" stroke="#ED1C24" stroke-width="20" stroke-miterlimit="10" width="32.9" height="32.9"/>
		
			<rect x="244.3" y="650.3" transform="matrix(0.7071 0.7071 -0.7071 0.7071 547.8359 10.9317)" fill="none" stroke="#ED1C24" stroke-width="20" stroke-miterlimit="10" width="32.9" height="32.9"/>
		
			<rect x="81.6" y="534.1" transform="matrix(0.7071 0.7071 -0.7071 0.7071 418.0181 91.9322)" fill="none" stroke="#ED1C24" stroke-width="20" stroke-miterlimit="10" width="32.9" height="32.9"/>
		
			<rect x="104.8" y="557.4" transform="matrix(0.7071 0.7071 -0.7071 0.7071 441.2588 82.3056)" fill="none" stroke="#ED1C24" stroke-width="20" stroke-miterlimit="10" width="32.9" height="32.9"/>
		
			<rect x="128.1" y="580.6" transform="matrix(0.7071 0.7071 -0.7071 0.7071 464.4995 72.6789)" fill="none" stroke="#ED1C24" stroke-width="20" stroke-miterlimit="10" width="32.9" height="32.9"/>
		
			<rect x="151.3" y="603.8" transform="matrix(0.7071 0.7071 -0.7071 0.7071 487.7403 63.0523)" fill="none" stroke="#ED1C24" stroke-width="20" stroke-miterlimit="10" width="32.9" height="32.9"/>
		
			<rect x="174.6" y="627.1" transform="matrix(0.7071 0.7071 -0.7071 0.7071 510.981 53.4257)" fill="none" stroke="#ED1C24" stroke-width="20" stroke-miterlimit="10" width="32.9" height="32.9"/>
		
			<rect x="197.8" y="650.3" transform="matrix(0.7071 0.7071 -0.7071 0.7071 534.2217 43.7991)" fill="none" stroke="#ED1C24" stroke-width="20" stroke-miterlimit="10" width="32.9" height="32.9"/>
		
			<rect x="221" y="673.6" transform="matrix(0.7071 0.7071 -0.7071 0.7071 557.4625 34.1724)" fill="none" stroke="#ED1C24" stroke-width="20" stroke-miterlimit="10" width="32.9" height="32.9"/>
		
			<rect x="58.4" y="557.4" transform="matrix(0.7071 0.7071 -0.7071 0.7071 427.6447 115.173)" fill="none" stroke="#ED1C24" stroke-width="20" stroke-miterlimit="10" width="32.9" height="32.9"/>
		
			<rect x="81.6" y="580.6" transform="matrix(0.7071 0.7071 -0.7071 0.7071 450.8854 105.5463)" fill="none" stroke="#ED1C24" stroke-width="20" stroke-miterlimit="10" width="32.9" height="32.9"/>
		
			<rect x="104.8" y="603.8" transform="matrix(0.7071 0.7071 -0.7071 0.7071 474.1262 95.9197)" fill="none" stroke="#ED1C24" stroke-width="20" stroke-miterlimit="10" width="32.9" height="32.9"/>
		
			<rect x="128.1" y="627.1" transform="matrix(0.7071 0.7071 -0.7071 0.7071 497.3669 86.2931)" fill="none" stroke="#ED1C24" stroke-width="20" stroke-miterlimit="10" width="32.9" height="32.9"/>
		
			<rect x="151.3" y="650.3" transform="matrix(0.7071 0.7071 -0.7071 0.7071 520.6077 76.6664)" fill="none" stroke="#ED1C24" stroke-width="20" stroke-miterlimit="10" width="32.9" height="32.9"/>
		
			<rect x="174.6" y="673.6" transform="matrix(0.7071 0.7071 -0.7071 0.7071 543.8484 67.0398)" fill="none" stroke="#ED1C24" stroke-width="20" stroke-miterlimit="10" width="32.9" height="32.9"/>
		
			<rect x="197.8" y="696.8" transform="matrix(0.7071 0.7071 -0.7071 0.7071 567.0891 57.4132)" fill="none" stroke="#ED1C24" stroke-width="20" stroke-miterlimit="10" width="32.9" height="32.9"/>
		
			<rect x="35.1" y="580.6" transform="matrix(0.7071 0.7071 -0.7071 0.7071 437.2713 138.4137)" fill="none" stroke="#ED1C24" stroke-width="20" stroke-miterlimit="10" width="32.9" height="32.9"/>
		
			<rect x="58.4" y="603.8" transform="matrix(0.7071 0.7071 -0.7071 0.7071 460.5121 128.7871)" fill="none" stroke="#ED1C24" stroke-width="20" stroke-miterlimit="10" width="32.9" height="32.9"/>
		
			<rect x="81.6" y="627.1" transform="matrix(0.7071 0.7071 -0.7071 0.7071 483.7528 119.1604)" fill="none" stroke="#ED1C24" stroke-width="20" stroke-miterlimit="10" width="32.9" height="32.9"/>
		
			<rect x="104.8" y="650.3" transform="matrix(0.7071 0.7071 -0.7071 0.7071 506.9935 109.5338)" fill="none" stroke="#ED1C24" stroke-width="20" stroke-miterlimit="10" width="32.9" height="32.9"/>
		
			<rect x="128.1" y="673.6" transform="matrix(0.7071 0.7071 -0.7071 0.7071 530.2343 99.9072)" fill="none" stroke="#ED1C24" stroke-width="20" stroke-miterlimit="10" width="32.9" height="32.9"/>
		
			<rect x="151.3" y="696.8" transform="matrix(0.7071 0.7071 -0.7071 0.7071 553.475 90.2805)" fill="none" stroke="#ED1C24" stroke-width="20" stroke-miterlimit="10" width="32.9" height="32.9"/>
		
			<rect x="174.6" y="720.1" transform="matrix(0.7071 0.7071 -0.7071 0.7071 576.7158 80.6539)" fill="none" stroke="#ED1C24" stroke-width="20" stroke-miterlimit="10" width="32.9" height="32.9"/>
		<path fill="none" stroke="#ED1C24" stroke-width="20" stroke-miterlimit="10" d="M202.6,446L191,434.4c0,0,8.4-8.4,11.6-11.6h0
			c6.4-6.4,16.8-6.4,23.2,0h0c6.4,6.4,6.4,16.8,0,23.2l0,0c-3.2,3.2-11.6,11.6-11.6,11.6S205.8,449.2,202.6,446z"/>
		
			<rect x="174.6" y="441.2" transform="matrix(0.7071 0.7071 -0.7071 0.7071 379.5115 -1.0308)" fill="none" stroke="#ED1C24" stroke-width="20" stroke-miterlimit="10" width="32.9" height="32.9"/>
		
			<rect x="197.8" y="464.4" transform="matrix(0.7071 0.7071 -0.7071 0.7071 402.7523 -10.6574)" fill="none" stroke="#ED1C24" stroke-width="20" stroke-miterlimit="10" width="32.9" height="32.9"/>
		
			<rect x="221" y="487.6" transform="matrix(0.7071 0.7071 -0.7071 0.7071 425.993 -20.284)" fill="none" stroke="#ED1C24" stroke-width="20" stroke-miterlimit="10" width="32.9" height="32.9"/>
		
			<rect x="244.3" y="510.9" transform="matrix(0.7071 0.7071 -0.7071 0.7071 449.2338 -29.9106)" fill="none" stroke="#ED1C24" stroke-width="20" stroke-miterlimit="10" width="32.9" height="32.9"/>
		
			<rect x="267.5" y="534.1" transform="matrix(0.7071 0.7071 -0.7071 0.7071 472.4745 -39.5373)" fill="none" stroke="#ED1C24" stroke-width="20" stroke-miterlimit="10" width="32.9" height="32.9"/>
		
			<rect x="290.8" y="557.4" transform="matrix(0.7071 0.7071 -0.7071 0.7071 495.7152 -49.1639)" fill="none" stroke="#ED1C24" stroke-width="20" stroke-miterlimit="10" width="32.9" height="32.9"/>
		
			<rect x="314" y="580.6" transform="matrix(0.7071 0.7071 -0.7071 0.7071 518.956 -58.7905)" fill="none" stroke="#ED1C24" stroke-width="20" stroke-miterlimit="10" width="32.9" height="32.9"/>
		
			<rect x="151.3" y="464.4" transform="matrix(0.7071 0.7071 -0.7071 0.7071 389.1382 22.21)" fill="none" stroke="#ED1C24" stroke-width="20" stroke-miterlimit="10" width="32.9" height="32.9"/>
		
			<rect x="174.6" y="487.6" transform="matrix(0.7071 0.7071 -0.7071 0.7071 412.3789 12.5834)" fill="none" stroke="#ED1C24" stroke-width="20" stroke-miterlimit="10" width="32.9" height="32.9"/>
		
			<rect x="197.8" y="510.9" transform="matrix(0.7071 0.7071 -0.7071 0.7071 435.6197 2.9567)" fill="none" stroke="#ED1C24" stroke-width="20" stroke-miterlimit="10" width="32.9" height="32.9"/>
		
			<rect x="221" y="534.1" transform="matrix(0.7071 0.7071 -0.7071 0.7071 458.8604 -6.6699)" fill="none" stroke="#ED1C24" stroke-width="20" stroke-miterlimit="10" width="32.9" height="32.9"/>
		
			<rect x="244.3" y="557.4" transform="matrix(0.7071 0.7071 -0.7071 0.7071 482.1011 -16.2965)" fill="none" stroke="#ED1C24" stroke-width="20" stroke-miterlimit="10" width="32.9" height="32.9"/>
		
			<rect x="267.5" y="580.6" transform="matrix(0.7071 0.7071 -0.7071 0.7071 505.3419 -25.9232)" fill="none" stroke="#ED1C24" stroke-width="20" stroke-miterlimit="10" width="32.9" height="32.9"/>
		
			<rect x="290.8" y="603.8" transform="matrix(0.7071 0.7071 -0.7071 0.7071 528.5826 -35.5498)" fill="none" stroke="#ED1C24" stroke-width="20" stroke-miterlimit="10" width="32.9" height="32.9"/>
		<path fill="none" stroke="#ED1C24" stroke-width="20" stroke-miterlimit="10" d="M249.1,492.5l-11.6-11.6c0,0,8.4-8.4,11.6-11.6
			l0,0c6.4-6.4,16.8-6.4,23.2,0v0c6.4,6.4,6.4,16.8,0,23.2v0c-3.2,3.2-11.6,11.6-11.6,11.6S252.3,495.7,249.1,492.5z"/>
		<path fill="none" stroke="#ED1C24" stroke-width="20" stroke-miterlimit="10" d="M295.6,538.9L284,527.3c0,0,8.4-8.4,11.6-11.6h0
			c6.4-6.4,16.8-6.4,23.2,0h0c6.4,6.4,6.4,16.8,0,23.2h0c-3.2,3.2-11.6,11.6-11.6,11.6S298.8,542.1,295.6,538.9z"/>
		<path fill="none" stroke="#ED1C24" stroke-width="20" stroke-miterlimit="10" d="M342.1,585.4l-11.6-11.6c0,0,8.4-8.4,11.6-11.6h0
			c6.4-6.4,16.8-6.4,23.2,0h0c6.4,6.4,6.4,16.8,0,23.2l0,0c-3.2,3.2-11.6,11.6-11.6,11.6S345.3,588.6,342.1,585.4z"/>
		<path fill="none" stroke="#ED1C24" stroke-width="20" stroke-miterlimit="10" d="M179.4,446l-11.6,11.6c0,0-8.4-8.4-11.6-11.6l0,0
			c-6.4-6.4-6.4-16.8,0-23.2h0c6.4-6.4,16.8-6.4,23.2,0h0c3.2,3.2,11.6,11.6,11.6,11.6S182.6,442.8,179.4,446z"/>
		<path fill="none" stroke="#ED1C24" stroke-width="20" stroke-miterlimit="10" d="M132.9,492.5l-11.6,11.6c0,0-8.4-8.4-11.6-11.6
			l0,0c-6.4-6.4-6.4-16.8,0-23.2l0,0c6.4-6.4,16.8-6.4,23.2,0l0,0c3.2,3.2,11.6,11.6,11.6,11.6S136.1,489.2,132.9,492.5z"/>
		<path fill="none" stroke="#ED1C24" stroke-width="20" stroke-miterlimit="10" d="M86.4,538.9l-11.6,11.6c0,0-8.4-8.4-11.6-11.6h0
			c-6.4-6.4-6.4-16.8,0-23.2h0c6.4-6.4,16.8-6.4,23.2,0h0c3.2,3.2,11.6,11.6,11.6,11.6S89.6,535.7,86.4,538.9z"/>
		<path fill="none" stroke="#ED1C24" stroke-width="20" stroke-miterlimit="10" d="M39.9,585.4L28.3,597c0,0-8.4-8.4-11.6-11.6l0,0
			c-6.4-6.4-6.4-16.8,0-23.2h0c6.4-6.4,16.8-6.4,23.2,0h0c3.2,3.2,11.6,11.6,11.6,11.6S43.1,582.2,39.9,585.4z"/>
		<path fill="none" stroke="#ED1C24" stroke-width="20" stroke-miterlimit="10" d="M39.9,608.7l11.6,11.6c0,0-8.4,8.4-11.6,11.6h0
			c-6.4,6.4-16.8,6.4-23.2,0h0c-6.4-6.4-6.4-16.8,0-23.2h0c3.2-3.2,11.6-11.6,11.6-11.6S36.7,605.5,39.9,608.7z"/>
		<path fill="none" stroke="#ED1C24" stroke-width="20" stroke-miterlimit="10" d="M86.4,655.1L98,666.8c0,0-8.4,8.4-11.6,11.6h0
			c-6.4,6.4-16.8,6.4-23.2,0h0c-6.4-6.4-6.4-16.8,0-23.2l0,0c3.2-3.2,11.6-11.6,11.6-11.6S83.2,651.9,86.4,655.1z"/>
		<path fill="none" stroke="#ED1C24" stroke-width="20" stroke-miterlimit="10" d="M132.9,701.6l11.6,11.6c0,0-8.4,8.4-11.6,11.6
			l0,0c-6.4,6.4-16.8,6.4-23.2,0l0,0c-6.4-6.4-6.4-16.8,0-23.2h0c3.2-3.2,11.6-11.6,11.6-11.6S129.7,698.4,132.9,701.6z"/>
		<path fill="none" stroke="#ED1C24" stroke-width="20" stroke-miterlimit="10" d="M179.4,748.1l11.6,11.6c0,0-8.4,8.4-11.6,11.6h0
			c-6.4,6.4-16.8,6.4-23.2,0h0c-6.4-6.4-6.4-16.8,0-23.2l0,0c3.2-3.2,11.6-11.6,11.6-11.6S176.2,744.9,179.4,748.1z"/>
		<path fill="none" stroke="#ED1C24" stroke-width="20" stroke-miterlimit="10" d="M202.6,748.1l11.6-11.6c0,0,8.4,8.4,11.6,11.6
			l0,0c6.4,6.4,6.4,16.8,0,23.2h0c-6.4,6.4-16.8,6.4-23.2,0h0c-3.2-3.2-11.6-11.6-11.6-11.6S199.4,751.3,202.6,748.1z"/>
		<path fill="none" stroke="#ED1C24" stroke-width="20" stroke-miterlimit="10" d="M249.1,701.6l11.6-11.6c0,0,8.4,8.4,11.6,11.6
			l0,0c6.4,6.4,6.4,16.8,0,23.2v0c-6.4,6.4-16.8,6.4-23.2,0l0,0c-3.2-3.2-11.6-11.6-11.6-11.6S245.9,704.8,249.1,701.6z"/>
		<path fill="none" stroke="#ED1C24" stroke-width="20" stroke-miterlimit="10" d="M295.6,655.1l11.6-11.6c0,0,8.4,8.4,11.6,11.6
			l0,0c6.4,6.4,6.4,16.8,0,23.2h0c-6.4,6.4-16.8,6.4-23.2,0h0c-3.2-3.2-11.6-11.6-11.6-11.6S292.4,658.4,295.6,655.1z"/>
		<path fill="none" stroke="#ED1C24" stroke-width="20" stroke-miterlimit="10" d="M342.1,608.7l11.6-11.6c0,0,8.4,8.4,11.6,11.6h0
			c6.4,6.4,6.4,16.8,0,23.2h0c-6.4,6.4-16.8,6.4-23.2,0h0c-3.2-3.2-11.6-11.6-11.6-11.6S338.9,611.9,342.1,608.7z"/>
	</g>
	<line fill="none" stroke="#ED1C24" stroke-width="10" stroke-miterlimit="10" x1="191" y1="434.4" x2="191" y2="0"/>
</g>
</svg>
