<?xml version="1.0" encoding="utf-8"?>
<!-- Generator: Adobe Illustrator 20.1.0, SVG Export Plug-In . SVG Version: 6.00 Build 0)  -->
<svg version="1.1" id="图层_1" xmlns="http://www.w3.org/2000/svg" xmlns:xlink="http://www.w3.org/1999/xlink" x="0px" y="0px"
	 viewBox="0 0 389 239" style="enable-background:new 0 0 389 239;" xml:space="preserve">
<style type="text/css">
	.st0{fill:#AC9055;}
</style>
<g>
	<path class="st0" d="M131.8,184.9c10.7,4.3,22.7,3.5,33.8-0.8c16.6-6.4,33.1-13,49.4-20.1c6.1-2.7,35.7-17.1,44.7-21
		c20.1-8.9,41.5-13,62.6-18.2c15.4-3.8,30.8-6.9,46.7-6.7c9.1,0.1,16.1,4.8,19,12.5c1.2,3.2,0.6,5.4-2.8,5.9
		c-5.5,0.7-21.7,1.1-24.2,1.2c-17.1,1-34.3,0.9-51.2,3.5c-12.7,1.9-25,6.6-37.1,11.1c-10,3.8-19.7,8.6-29.2,13.8
		c-4.8,2.7-25.4,13.8-30.7,17.3c-5.8,3.8-37.4,26.1-44.5,30.4c-8.9,5.4-27.8,14.3-37.2,18.6c-3.6,1.7-9.8,4.4-15,5.4
		c-8.8,1.7-20.3,1.6-27,0.6c-5.3-0.8-25.1-5.5-32.9-9c-11.6-5.4-31.9-22.5-40-32.6c-3.3-4-7.2-11.8-10.4-17.9
		c-2.1-4-4.5-9.2-5.2-12.6c-1-5.2-0.6-16.8,2.5-21.1c1.1-1.6,4.9-3.1,6.7-3.6c2.1-0.6,6.6-0.8,8.8-0.7c9.8,0.9,25.9,4.8,38.2,9.4
		C76.2,157.5,112.7,177.1,131.8,184.9z"/>
</g>
</svg>
